<svg width="51" height="50" viewBox="0 0 51 50" fill="none" xmlns="http://www.w3.org/2000/svg">
<path d="M34.25 22.5C35.2917 22.5 36.1771 22.1354 36.9062 21.4062C37.6354 20.6771 38 19.7917 38 18.75C38 17.7083 37.6354 16.8229 36.9062 16.0938C36.1771 15.3646 35.2917 15 34.25 15C33.2083 15 32.3229 15.3646 31.5938 16.0938C30.8646 16.8229 30.5 17.7083 30.5 18.75C30.5 19.7917 30.8646 20.6771 31.5938 21.4062C32.3229 22.1354 33.2083 22.5 34.25 22.5ZM16.75 22.5C17.7917 22.5 18.6771 22.1354 19.4062 21.4062C20.1354 20.6771 20.5 19.7917 20.5 18.75C20.5 17.7083 20.1354 16.8229 19.4062 16.0938C18.6771 15.3646 17.7917 15 16.75 15C15.7083 15 14.8229 15.3646 14.0938 16.0938C13.3646 16.8229 13 17.7083 13 18.75C13 19.7917 13.3646 20.6771 14.0938 21.4062C14.8229 22.1354 15.7083 22.5 16.75 22.5ZM25.5 28.75C22.6667 28.75 20.0938 29.5521 17.7812 31.1563C15.4688 32.7604 13.7917 34.875 12.75 37.5H38.25C37.2083 34.875 35.5312 32.7604 33.2188 31.1563C30.9062 29.5521 28.3333 28.75 25.5 28.75ZM25.5 50C22.0417 50 18.7917 49.3438 15.75 48.0312C12.7083 46.7187 10.0625 44.9375 7.8125 42.6875C5.5625 40.4375 3.78125 37.7917 2.46875 34.75C1.15625 31.7083 0.5 28.4583 0.5 25C0.5 21.5417 1.15625 18.2917 2.46875 15.25C3.78125 12.2083 5.5625 9.5625 7.8125 7.3125C10.0625 5.0625 12.7083 3.28125 15.75 1.96875C18.7917 0.65625 22.0417 0 25.5 0C28.9583 0 32.2083 0.65625 35.25 1.96875C38.2917 3.28125 40.9375 5.0625 43.1875 7.3125C45.4375 9.5625 47.2187 12.2083 48.5312 15.25C49.8438 18.2917 50.5 21.5417 50.5 25C50.5 28.4583 49.8438 31.7083 48.5312 34.75C47.2187 37.7917 45.4375 40.4375 43.1875 42.6875C40.9375 44.9375 38.2917 46.7187 35.25 48.0312C32.2083 49.3438 28.9583 50 25.5 50ZM25.5 45C31.0833 45 35.8125 43.0625 39.6875 39.1875C43.5625 35.3125 45.5 30.5833 45.5 25C45.5 19.4167 43.5625 14.6875 39.6875 10.8125C35.8125 6.9375 31.0833 5 25.5 5C19.9167 5 15.1875 6.9375 11.3125 10.8125C7.4375 14.6875 5.5 19.4167 5.5 25C5.5 30.5833 7.4375 35.3125 11.3125 39.1875C15.1875 43.0625 19.9167 45 25.5 45Z" fill="#1C1B1F"/>
</svg>
