<svg width="51" height="50" viewBox="0 0 51 50" fill="none" xmlns="http://www.w3.org/2000/svg">
<path d="M25.5 38.75C28.3333 38.75 30.9063 37.9479 33.2188 36.3438C35.5312 34.7396 37.2083 32.625 38.25 30H12.75C13.7917 32.625 15.4688 34.7396 17.7812 36.3438C20.0938 37.9479 22.6667 38.75 25.5 38.75ZM15 22.5L17.75 19.875L20.375 22.5L23 19.875L17.75 14.5L12.375 19.875L15 22.5ZM30.625 22.5L33.25 19.875L36 22.5L38.625 19.875L33.25 14.5L28 19.875L30.625 22.5ZM25.5 50C22.0417 50 18.7917 49.3438 15.75 48.0312C12.7083 46.7188 10.0625 44.9375 7.8125 42.6875C5.5625 40.4375 3.78125 37.7917 2.46875 34.75C1.15625 31.7083 0.5 28.4583 0.5 25C0.5 21.5417 1.15625 18.2917 2.46875 15.25C3.78125 12.2083 5.5625 9.5625 7.8125 7.3125C10.0625 5.0625 12.7083 3.28125 15.75 1.96875C18.7917 0.65625 22.0417 0 25.5 0C28.9583 0 32.2083 0.65625 35.25 1.96875C38.2917 3.28125 40.9375 5.0625 43.1875 7.3125C45.4375 9.5625 47.2188 12.2083 48.5312 15.25C49.8438 18.2917 50.5 21.5417 50.5 25C50.5 28.4583 49.8438 31.7083 48.5312 34.75C47.2188 37.7917 45.4375 40.4375 43.1875 42.6875C40.9375 44.9375 38.2917 46.7188 35.25 48.0312C32.2083 49.3438 28.9583 50 25.5 50ZM25.5 45C31.0833 45 35.8125 43.0625 39.6875 39.1875C43.5625 35.3125 45.5 30.5833 45.5 25C45.5 19.4167 43.5625 14.6875 39.6875 10.8125C35.8125 6.9375 31.0833 5 25.5 5C19.9167 5 15.1875 6.9375 11.3125 10.8125C7.4375 14.6875 5.5 19.4167 5.5 25C5.5 30.5833 7.4375 35.3125 11.3125 39.1875C15.1875 43.0625 19.9167 45 25.5 45Z" fill="#1C1B1F"/>
</svg>
