<svg width="51" height="50" viewBox="0 0 51 50" fill="none" xmlns="http://www.w3.org/2000/svg">
<path d="M25.5 50C22.0417 50 18.7917 49.3438 15.75 48.0312C12.7083 46.7188 10.0625 44.9375 7.8125 42.6875C5.5625 40.4375 3.78125 37.7917 2.46875 34.75C1.15625 31.7083 0.5 28.4583 0.5 25C0.5 21.5417 1.15625 18.2917 2.46875 15.25C3.78125 12.2083 5.5625 9.5625 7.8125 7.3125C10.0625 5.0625 12.7083 3.28125 15.75 1.96875C18.7917 0.65625 22.0417 0 25.5 0C28.9583 0 32.2083 0.65625 35.25 1.96875C38.2917 3.28125 40.9375 5.0625 43.1875 7.3125C45.4375 9.5625 47.2188 12.2083 48.5312 15.25C49.8438 18.2917 50.5 21.5417 50.5 25C50.5 28.4583 49.8438 31.7083 48.5312 34.75C47.2188 37.7917 45.4375 40.4375 43.1875 42.6875C40.9375 44.9375 38.2917 46.7188 35.25 48.0312C32.2083 49.3438 28.9583 50 25.5 50ZM25.5 45C31.0417 45 35.7604 43.0521 39.6562 39.1562C43.5521 35.2604 45.5 30.5417 45.5 25C45.5 19.4583 43.5521 14.7396 39.6562 10.8438C35.7604 6.94792 31.0417 5 25.5 5C19.9583 5 15.2396 6.94792 11.3438 10.8438C7.44792 14.7396 5.5 19.4583 5.5 25C5.5 30.5417 7.44792 35.2604 11.3438 39.1562C15.2396 43.0521 19.9583 45 25.5 45ZM29.25 22.25L30.5 21.5C30.5833 22.5 30.9792 23.3333 31.6875 24C32.3958 24.6667 33.25 25 34.25 25C35.2917 25 36.1771 24.6354 36.9062 23.9062C37.6354 23.1771 38 22.2917 38 21.25C38 20.625 37.8542 20.0312 37.5625 19.4688C37.2708 18.9062 36.875 18.4583 36.375 18.125L38 17.1875L36.75 15L28 20L29.25 22.25ZM21.75 22.25L23 20L14.25 15L13 17.1875L14.625 18.125C14.125 18.4583 13.7292 18.9062 13.4375 19.4688C13.1458 20.0312 13 20.625 13 21.25C13 22.2917 13.3646 23.1771 14.0938 23.9062C14.8229 24.6354 15.7083 25 16.75 25C17.75 25 18.6042 24.6667 19.3125 24C20.0208 23.3333 20.4167 22.5 20.5 21.5L21.75 22.25ZM25.5 27.5C22.5417 27.5 19.9375 28.4479 17.6875 30.3438C15.4375 32.2396 13.8542 34.625 12.9375 37.5H38.0625C37.1458 34.625 35.5625 32.2396 33.3125 30.3438C31.0625 28.4479 28.4583 27.5 25.5 27.5Z" fill="#1C1B1F"/>
</svg>
