<svg width="51" height="50" viewBox="0 0 51 50" fill="none" xmlns="http://www.w3.org/2000/svg">
<path d="M15.5 25V30C15.5 32.75 16.4792 35.1042 18.4375 37.0625C20.3958 39.0208 22.75 40 25.5 40C28.25 40 30.6042 39.0208 32.5625 37.0625C34.5208 35.1042 35.5 32.75 35.5 30V25H15.5ZM25.5 36.25C23.75 36.25 22.2708 35.6458 21.0625 34.4375C19.8542 33.2292 19.25 31.75 19.25 30V28.75H31.75V30C31.75 31.75 31.1458 33.2292 29.9375 34.4375C28.7292 35.6458 27.25 36.25 25.5 36.25ZM16.75 12.5C15.1667 12.5 13.7604 13.0729 12.5312 14.2188C11.3021 15.3646 10.4375 16.9375 9.9375 18.9375L13.5625 19.8125C13.8125 18.7292 14.2292 17.8646 14.8125 17.2188C15.3958 16.5729 16.0417 16.25 16.75 16.25C17.4583 16.25 18.1042 16.5729 18.6875 17.2188C19.2708 17.8646 19.6875 18.7292 19.9375 19.8125L23.5625 18.9375C23.0625 16.9375 22.1979 15.3646 20.9688 14.2188C19.7396 13.0729 18.3333 12.5 16.75 12.5ZM34.25 12.5C32.6667 12.5 31.2604 13.0729 30.0312 14.2188C28.8021 15.3646 27.9375 16.9375 27.4375 18.9375L31.0625 19.8125C31.3125 18.7292 31.7292 17.8646 32.3125 17.2188C32.8958 16.5729 33.5417 16.25 34.25 16.25C34.9583 16.25 35.6042 16.5729 36.1875 17.2188C36.7708 17.8646 37.1875 18.7292 37.4375 19.8125L41.0625 18.9375C40.5625 16.9375 39.6979 15.3646 38.4688 14.2188C37.2396 13.0729 35.8333 12.5 34.25 12.5ZM25.5 50C22.0417 50 18.7917 49.3438 15.75 48.0312C12.7083 46.7188 10.0625 44.9375 7.8125 42.6875C5.5625 40.4375 3.78125 37.7917 2.46875 34.75C1.15625 31.7083 0.5 28.4583 0.5 25C0.5 21.5417 1.15625 18.2917 2.46875 15.25C3.78125 12.2083 5.5625 9.5625 7.8125 7.3125C10.0625 5.0625 12.7083 3.28125 15.75 1.96875C18.7917 0.65625 22.0417 0 25.5 0C28.9583 0 32.2083 0.65625 35.25 1.96875C38.2917 3.28125 40.9375 5.0625 43.1875 7.3125C45.4375 9.5625 47.2188 12.2083 48.5312 15.25C49.8438 18.2917 50.5 21.5417 50.5 25C50.5 28.4583 49.8438 31.7083 48.5312 34.75C47.2188 37.7917 45.4375 40.4375 43.1875 42.6875C40.9375 44.9375 38.2917 46.7188 35.25 48.0312C32.2083 49.3438 28.9583 50 25.5 50ZM25.5 45C31.0833 45 35.8125 43.0625 39.6875 39.1875C43.5625 35.3125 45.5 30.5833 45.5 25C45.5 19.4167 43.5625 14.6875 39.6875 10.8125C35.8125 6.9375 31.0833 5 25.5 5C19.9167 5 15.1875 6.9375 11.3125 10.8125C7.4375 14.6875 5.5 19.4167 5.5 25C5.5 30.5833 7.4375 35.3125 11.3125 39.1875C15.1875 43.0625 19.9167 45 25.5 45Z" fill="#1C1B1F"/>
</svg>
