<svg width="51" height="50" viewBox="0 0 51 50" fill="none" xmlns="http://www.w3.org/2000/svg">
<path d="M16.75 25C18.5 25 19.9583 24.3646 21.125 23.0938C22.2917 21.8229 23.1042 20.3125 23.5625 18.5625L19.9375 17.6875C19.7292 18.6042 19.3646 19.4271 18.8438 20.1562C18.3229 20.8854 17.625 21.25 16.75 21.25C15.875 21.25 15.1771 20.8854 14.6562 20.1562C14.1354 19.4271 13.7708 18.6042 13.5625 17.6875L9.9375 18.5625C10.3958 20.3125 11.2083 21.8229 12.375 23.0938C13.5417 24.3646 15 25 16.75 25ZM25.5 38.75C27.125 38.75 28.6875 38.3854 30.1875 37.6562C31.6875 36.9271 33.0833 35.8333 34.375 34.375L31.625 31.875C30.7083 32.875 29.7292 33.6354 28.6875 34.1562C27.6458 34.6771 26.5833 34.9375 25.5 34.9375C24.4167 34.9375 23.3542 34.6771 22.3125 34.1562C21.2708 33.6354 20.2917 32.875 19.375 31.875L16.625 34.375C17.9583 35.8333 19.3646 36.9271 20.8438 37.6562C22.3229 38.3854 23.875 38.75 25.5 38.75ZM34.25 25C36 25 37.4583 24.3646 38.625 23.0938C39.7917 21.8229 40.6042 20.3125 41.0625 18.5625L37.4375 17.6875C37.2292 18.6042 36.8646 19.4271 36.3438 20.1562C35.8229 20.8854 35.125 21.25 34.25 21.25C33.375 21.25 32.6771 20.8854 32.1562 20.1562C31.6354 19.4271 31.2708 18.6042 31.0625 17.6875L27.4375 18.5625C27.8958 20.3125 28.7083 21.8229 29.875 23.0938C31.0417 24.3646 32.5 25 34.25 25ZM25.5 50C22.0417 50 18.7917 49.3438 15.75 48.0312C12.7083 46.7188 10.0625 44.9375 7.8125 42.6875C5.5625 40.4375 3.78125 37.7917 2.46875 34.75C1.15625 31.7083 0.5 28.4583 0.5 25C0.5 21.5417 1.15625 18.2917 2.46875 15.25C3.78125 12.2083 5.5625 9.5625 7.8125 7.3125C10.0625 5.0625 12.7083 3.28125 15.75 1.96875C18.7917 0.65625 22.0417 0 25.5 0C28.9583 0 32.2083 0.65625 35.25 1.96875C38.2917 3.28125 40.9375 5.0625 43.1875 7.3125C45.4375 9.5625 47.2188 12.2083 48.5312 15.25C49.8438 18.2917 50.5 21.5417 50.5 25C50.5 28.4583 49.8438 31.7083 48.5312 34.75C47.2188 37.7917 45.4375 40.4375 43.1875 42.6875C40.9375 44.9375 38.2917 46.7188 35.25 48.0312C32.2083 49.3438 28.9583 50 25.5 50ZM25.5 45C31.0833 45 35.8125 43.0625 39.6875 39.1875C43.5625 35.3125 45.5 30.5833 45.5 25C45.5 19.4167 43.5625 14.6875 39.6875 10.8125C35.8125 6.9375 31.0833 5 25.5 5C19.9167 5 15.1875 6.9375 11.3125 10.8125C7.4375 14.6875 5.5 19.4167 5.5 25C5.5 30.5833 7.4375 35.3125 11.3125 39.1875C15.1875 43.0625 19.9167 45 25.5 45Z" fill="#1C1B1F"/>
</svg>
