<svg width="53" height="50" viewBox="0 0 53 50" fill="none" xmlns="http://www.w3.org/2000/svg">
<path d="M0.9375 20.25C2.02083 14.4167 4.84375 9.58333 9.40625 5.75C13.9688 1.91667 19.3333 0 25.5 0C28.5833 0 31.4896 0.5 34.2188 1.5C36.9479 2.5 39.3958 3.91667 41.5625 5.75C40.9792 6.83333 40.5104 7.76042 40.1562 8.53125C39.8021 9.30208 39.5625 10.0208 39.4375 10.6875C37.6042 8.9375 35.5 7.55208 33.125 6.53125C30.75 5.51042 28.2083 5 25.5 5C21.2917 5 17.5208 6.17708 14.1875 8.53125C10.8542 10.8854 8.4375 13.8958 6.9375 17.5625C5.8125 17.5208 4.71875 17.7292 3.65625 18.1875C2.59375 18.6458 1.6875 19.3333 0.9375 20.25ZM25.5 50C19.3333 50 13.9688 48.0833 9.40625 44.25C4.84375 40.4167 2.02083 35.5833 0.9375 29.75C1.64583 30.6667 2.53125 31.3646 3.59375 31.8438C4.65625 32.3229 5.77083 32.5417 6.9375 32.5C8.4375 36.1667 10.8542 39.1667 14.1875 41.5C17.5208 43.8333 21.2917 45 25.5 45C31.0417 45 35.7604 43.0521 39.6562 39.1562C43.5521 35.2604 45.5 30.5417 45.5 25C45.5 24.2917 45.4688 23.5833 45.4062 22.875C45.3438 22.1667 45.2292 21.4583 45.0625 20.75C45.5208 20.9167 45.9896 21.0417 46.4688 21.125C46.9479 21.2083 47.4583 21.25 48 21.25C48.375 21.25 48.75 21.2292 49.125 21.1875C49.5 21.1458 49.8542 21.0833 50.1875 21C50.2708 21.6667 50.3438 22.3229 50.4062 22.9688C50.4688 23.6146 50.5 24.2917 50.5 25C50.5 28.4583 49.8438 31.7083 48.5312 34.75C47.2188 37.7917 45.4375 40.4375 43.1875 42.6875C40.9375 44.9375 38.2917 46.7188 35.25 48.0312C32.2083 49.3438 28.9583 50 25.5 50ZM16.5 24L21.75 18.75L16.4375 13.4375L13.8125 16.0625L16.5 18.6875L13.8125 21.375L16.5 24ZM48 17.5C46.625 17.5 45.4479 17.0104 44.4688 16.0312C43.4896 15.0521 43 13.875 43 12.5C43 11.375 43.3125 10.1771 43.9375 8.90625C44.5625 7.63542 45.9167 5.5 48 2.5C50.0833 5.5 51.4375 7.63542 52.0625 8.90625C52.6875 10.1771 53 11.375 53 12.5C53 13.875 52.5104 15.0521 51.5313 16.0312C50.5521 17.0104 49.375 17.5 48 17.5ZM34.5625 24.0625L37.25 21.375L34.5625 18.6875L37.1875 16.0625L34.5625 13.4375L29.25 18.75L34.5625 24.0625ZM25.5 28.75C24.4167 28.75 23.3646 28.875 22.3438 29.125C21.3229 29.375 20.3542 29.7292 19.4375 30.1875L10.5 25C10.5 24.3333 10.3333 23.7083 10 23.125C9.66667 22.5417 9.20833 22.0833 8.625 21.75C7.70833 21.25 6.76042 21.1354 5.78125 21.4062C4.80208 21.6771 4.04167 22.25 3.5 23.125C3 24.0417 2.88542 24.9896 3.15625 25.9688C3.42708 26.9479 4 27.7083 4.875 28.25C5.45833 28.5833 6.08333 28.75 6.75 28.75C7.41667 28.75 8.04167 28.5833 8.625 28.25L16.0625 32.5625C15.3542 33.2708 14.7188 34.0312 14.1562 34.8438C13.5938 35.6562 13.125 36.5417 12.75 37.5H16.875C17.75 36 18.9375 34.7917 20.4375 33.875C21.9375 32.9583 23.625 32.5 25.5 32.5C27.375 32.5 29.0625 32.9583 30.5625 33.875C32.0625 34.7917 33.25 36 34.125 37.5H38.25C37.25 34.9167 35.6146 32.8125 33.3438 31.1875C31.0729 29.5625 28.4583 28.75 25.5 28.75Z" fill="#1C1B1F"/>
</svg>
