<?xml version="1.0" encoding="UTF-8"?>
<svg version="1.1" viewBox="0 0 324.48 139.65" xmlns="http://www.w3.org/2000/svg">
 <defs>
  <linearGradient id="a" x1=".22" x2=".78" gradientTransform="matrix(0 -145.32 280.42 0 300.31 462.15)" gradientUnits="userSpaceOnUse">
   <stop stop-color="#9cc" offset="0"/>
   <stop stop-color="#fff" offset="1"/>
  </linearGradient>
 </defs>
 <g transform="translate(-99.962 -796.51)">
  <g transform="matrix(1.25 0 0 -1.25 -275.42 1332.2)">
   <path d="m559.89 428.55h-259.59v-111.72h259.59v111.72z" fill="url(#a)" fill-rule="evenodd"/>
  </g>
 </g>
 <g transform="translate(-99.962 -796.51)" fill="#91adad" fill-rule="evenodd">
  <path d="m424.45 873.41c-101.32-32.859-209.48 17.799-324.48 0v62.758h324.48v-62.758"/>
  <path d="m309.52 835.06c-3.2326 0.636-5.9018 2.5228-7.6036 5.0588-1.7019 2.5359-2.4368 5.721-1.8004 8.9535 0.63638 3.2326 2.5233 5.9018 5.0591 7.6036 2.536 1.7019 5.721 2.4364 8.9536 1.8004 3.2321-0.63638 5.9014-2.5233 7.6032-5.0591 1.7018-2.536 2.4368-5.721 1.8002-8.9536-0.63637-3.2325-2.5231-5.9018-5.0591-7.6035-2.5359-1.7019-5.721-2.4364-8.9531-1.8"/>
  <path d="m314.72 848.64-3.5285 1.1669 1.9205 16.396 3.5288-1.1668-1.9208-16.396z"/>
  <path d="m375.72 841.9c-2.8321 0.0336-5.3834 1.2125-7.218 3.0911-1.8348 1.8786-2.9528 4.4568-2.919 7.2894 0.0332 2.8325 1.2125 5.3836 3.0908 7.218 1.8788 1.8348 4.4571 2.9526 7.2894 2.9194 2.8325-0.0338 5.3836-1.2125 7.2184-3.0912 1.8344-1.8786 2.9526-4.4568 2.919-7.2892-0.0336-2.8325-1.2125-5.3838-3.0912-7.2181-1.8782-1.8346-4.4568-2.9526-7.2892-2.9192"/>
  <path d="m378.46 854.28-5.1948 0.0616 0.17038 14.366 5.1945-0.0617-0.17013-14.366z"/>
  <path d="m326.65 846.03c-1.9035 0.14-3.5702 1.0389-4.7261 2.3786s-1.8008 3.1199-1.6604 5.0236c0.14 1.9035 1.0389 3.5702 2.3786 4.7261 1.3394 1.1559 3.1199 1.8008 5.0234 1.6604 1.9034-0.14025 3.5702-1.0389 4.726-2.3786 1.1559-1.3398 1.8008-3.1202 1.6608-5.0236-0.14025-1.9035-1.0392-3.5702-2.3786-4.7261-1.3398-1.1559-3.1202-1.8008-5.0236-1.6604"/>
  <path d="m328.16 854.24-1.3701 0.25725 0.27913 9.6549 1.3699-0.25687-0.27887-9.6552z"/>
  <path d="m119.62 864.26c-1.4379-0.15875-2.8045 0.28063-3.8512 1.119-1.0462 0.83838-1.7734 2.076-1.9321 3.5139-0.15875 1.4382 0.28062 2.8045 1.119 3.8512 0.83837 1.0468 2.076 1.7734 3.5142 1.9321 1.4379 0.15913 2.8041-0.28025 3.8509-1.1189 1.0466-0.83838 1.7734-2.0761 1.9325-3.514 0.15875-1.4379-0.28062-2.8045-1.119-3.8511-0.83862-1.0468-2.0764-1.7735-3.5142-1.9322"/>
  <path d="m120.24 870.71-2.637-0.29125-0.80537 7.2935 2.6369 0.29125 0.8055-7.2935z"/>
  <path d="m345.85 853.11l-3.7832 0.22987 0.6605 10.856 3.7832-0.23025-0.6605-10.856z"/>
  <path d="m342.64 834.62l-8.5649 24.785 20.071-1.2214-11.506-23.564z"/>
  <path d="m109.54 867.83l3.0202 0.18388-0.52725 8.6662-3.0202-0.18388 0.52725-8.6662z"/>
  <path d="m112.1 853.07l6.8376 19.787-16.023-0.97487 9.1856-18.812z"/>
  <path d="m153.84 873.05l1.9874 0.12112-0.34688 5.7034-1.9878-0.12088 0.34726-5.7036z"/>
  <path d="m155.52 863.33l4.5 13.022-10.545-0.64175 6.0452-12.38z"/>
  <path d="m129.1 858.37l3.4438 0.20975-1.6969 20.29-3.4438-0.2095 1.6969-20.29z"/>
  <path d="m132.01 841.54l7.7962 22.562-18.27-1.1115 10.474-21.45z"/>
  <path d="m406.61 843.26l-4.2988-0.444-2.0449 25.422 4.2991 0.44437 2.0445-25.422z"/>
  <path d="m406.44 821.86l-14.241 26.292 22.807 2.356-8.566-28.648z"/>
  <path d="m137.24 865.82l2.4945-0.26287 1.2178 14.754-2.4948 0.26288-1.2175-14.754z"/>
  <path d="m137.31 853.4l8.298 15.244-13.236 1.395 4.9376-16.639z"/>
  <path d="m393.32 851.68l-3.1248-0.32925-1.5254 18.481 3.1251 0.32912 1.525-18.481z"/>
  <path d="m393.23 836.13l-10.394 19.095 16.579 1.7471-6.1849-20.842z"/>
  <path d="m149.09 868.36l1.5655 0.068-0.612 9.2271-1.5658-0.068 0.61225-9.2271z"/>
  <path d="m150.29 860.69l3.7166 10.185-8.3055-0.36212 4.5889-9.8228z"/>
 </g>
 <g transform="translate(-99.962 -796.51)" fill="#618a8a" fill-rule="evenodd">
  <path d="m240.56 846.71c-4.1758-0.12674-8.0086 1.4518-10.829 4.106-2.8205 2.6544-4.6286 6.3844-4.7555 10.56-0.12687 4.1761 1.452 8.0086 4.106 10.829 2.6542 2.8204 6.3842 4.6285 10.56 4.7554 4.1762 0.1265 8.009-1.452 10.83-4.1062 2.8205-2.654 4.6282-6.384 4.7551-10.56 0.12675-4.1761-1.4518-8.009-4.106-10.83-2.6544-2.8204-6.3844-4.6282-10.56-4.7551"/>
  <path d="m243.84 865.13-7.6589-0.23238-0.64275 21.182 7.6589 0.23238 0.64275-21.182z"/>
  <path d="m213.52 868.5l4.4869 0.34188-0.98112 12.875-4.4869-0.342 0.98113-12.874z"/>
  <path d="m217.66 846.61l9.7169 29.578-23.804-1.8145 14.088-27.764z"/>
  <path d="m186.97 867.54l4.4975-0.15588 0.44749 12.904-4.4971 0.15625-0.44787-12.904z"/>
  <path d="m188.66 845.32l12.927 28.323-23.858 0.82775 10.932-29.151z"/>
  <path d="m201.44 851.23l4.487 0.34188-2.7075 30.713-4.4869-0.34188 2.7074-30.713z"/>
  <path d="m205.58 829.34l9.7169 29.578-23.804-1.8145 14.087-27.764z"/>
  <path d="m166.13 838.62c-4.6612 0.45525-8.6975 2.7578-11.454 6.1115-2.757 3.3538-4.235 7.7591-3.7796 12.42 0.45525 4.6615 2.7578 8.6978 6.1115 11.455 3.3537 2.7568 7.7591 4.2346 12.42 3.7792 4.6615-0.45488 8.6978-2.7574 11.455-6.1114 2.7568-3.3538 4.2346-7.7592 3.7794-12.42-0.45537-4.6616-2.7575-8.6975-6.1115-11.454-3.3538-2.757-7.7592-4.235-12.42-3.7796"/>
  <path d="m171.46 862.31-5.973 0.80438 1.6132 22.77 5.973-0.804-1.6132-22.77z"/>
  <path d="m99.962 888.24c101.32-25.092 209.48 13.591 324.48 0v47.923h-324.48v-47.923"/>
 </g>
 <g transform="translate(-99.962 -796.51)" fill="#4c7878" fill-rule="evenodd">
  <path d="m313.1 887.17c-2.5072 3e-3 -4.7768 1.0213-6.4188 2.666-1.642 1.6449-2.6568 3.9161-2.6542 6.4234 2e-3 2.5072 1.0208 4.7768 2.6656 6.4186 1.6451 1.642 3.9164 2.6569 6.4232 2.6544 2.5073-3e-3 4.7768-1.0209 6.4188-2.6656 1.642-1.6452 2.6568-3.9165 2.6542-6.4238-2e-3 -2.5072-1.0208-4.7764-2.6656-6.4182-1.6451-1.642-3.916-2.6569-6.4232-2.6548"/>
  <path d="m315.41 898.16-4.5981 4e-3 0.0113 12.717 4.5981-4e-3 -0.0113-12.717z"/>
  <path d="m282.7 877.66l8.3491-0.916 2.6284 23.956-8.3491 0.91588-2.6284-23.956z"/>
  <path d="m282.77 836.07l28 50.919-44.293 4.8596 16.293-55.778z"/>
  <path d="m262.52 890.57l5.3942-0.59175 1.6984 15.478-5.3944 0.59175-1.6982-15.478z"/>
  <path d="m262.56 863.71l18.091 32.899-28.618 3.14 10.527-36.039z"/>
  <path d="m128.49 902.44l5.4168 0.32962-0.94538 15.542-5.4166-0.32962 0.94525-15.542z"/>
  <path d="m133.08 875.97l12.262 35.486-28.736-1.7482 16.474-33.737z"/>
  <path d="m363.89 852.52c-5.1466-0.4695-9.9971 1.1924-13.678 4.258-3.6811 3.066-6.193 7.5359-6.6621 12.682-0.4695 5.1466 1.1924 9.9971 4.258 13.678 3.066 3.6811 7.5359 6.193 12.682 6.6621 5.1466 0.4695 9.997-1.1924 13.678-4.258 3.6811-3.066 6.1929-7.5356 6.6621-12.682 0.46937-5.1466-1.1924-9.9971-4.258-13.678-3.0661-3.6811-7.536-6.193-12.682-6.6621"/>
  <path d="m365.27 875.51-7.3839-0.86062-1.8624 26.104 7.3839 0.86063 1.8624-26.104z"/>
  <path d="m341.83 867.07c-3.8378 4e-3 -7.3112 1.5626-9.8242 4.0801-2.5132 2.5179-4.0662 5.9939-4.0628 9.8316 4e-3 3.8378 1.5626 7.3109 4.0801 9.8242 2.5179 2.5133 5.9942 4.0662 9.8316 4.0628 3.8374-4e-3 7.3109-1.5626 9.8241-4.0801 2.5134-2.5179 4.0664-5.9942 4.0628-9.8316-4e-3 -3.8378-1.5625-7.3112-4.08-9.8242-2.5179-2.5132-5.9942-4.0662-9.8316-4.0628"/>
  <path d="m343.68 883.88-3.6701 6e-3 9e-3 19.464 3.6705-6e-3 -9e-3 -19.465z"/>
  <path d="m424.45 903.08c-101.32-17.324-209.48 9.3841-324.48 0v33.088h324.48v-33.088"/>
 </g>
</svg>
