<svg width="616" height="292" viewBox="0 0 616 292" fill="none" xmlns="http://www.w3.org/2000/svg">
<path d="M398.919 12.4166C348.326 12.4745 307.328 53.1669 307.27 103.381V193.419C307.27 243.358 347.144 285.189 397.453 285.97C448.74 286.765 490.568 245.739 490.568 195.016V103.381C490.511 53.1663 449.511 12.4731 398.919 12.4166ZM398.919 238.684C374.632 238.657 354.95 219.122 354.922 195.016L354.922 104.526C354.922 80.7924 373.514 60.5304 397.412 59.7383C422.398 58.9101 442.915 78.7675 442.915 103.381V195.016C442.888 219.122 423.206 238.657 398.919 238.684Z" fill="#397F00"/>
<path d="M87.8721 5.38508C42.0725 5.38508 6.0844 37.8805 4.17034 80.9731C2.93134 108.784 15.0802 146.576 79.9802 168.672C124.165 183.717 123.328 202.507 123.056 208.682C122.293 225.798 107.486 238.222 87.8454 238.222C73.6642 238.222 64.603 234.042 58.8153 228.592C52.0313 222.204 42.2102 220.159 33.4663 223.449C17.1162 229.603 12.3225 250.601 24.7842 262.776C37.4737 275.174 57.376 286.393 87.8402 286.393C133.64 286.393 169.628 253.895 171.542 210.805C172.778 182.995 160.635 145.205 95.7294 123.104C51.5476 108.058 52.384 89.271 52.6594 83.0961C53.4217 65.98 68.2284 53.554 87.8692 53.554C102.049 53.554 111.111 57.7344 116.899 63.1854C123.683 69.5741 133.504 71.6196 142.249 68.3287L142.25 68.3281C158.6 62.1747 163.393 41.1773 150.932 29.0018C138.243 16.6032 118.34 5.38232 87.8745 5.38232" fill="#FFC900"/>
<path d="M331.096 171.368C317.937 171.368 307.27 181.956 307.27 195.016C307.242 219.122 287.56 238.657 263.273 238.684C238.986 238.657 219.304 219.122 219.277 195.016V104.526C219.277 80.7925 237.868 60.5304 261.766 59.7383C286.752 58.9102 307.27 78.7676 307.27 103.381C307.27 116.442 317.937 127.03 331.096 127.03C344.255 127.03 354.922 116.442 354.922 103.381C354.865 53.1662 313.866 12.473 263.273 12.4165C212.681 12.4744 171.682 53.1668 171.624 103.381V193.419C171.624 243.357 211.498 285.189 261.807 285.97C313.095 286.765 354.922 245.739 354.922 195.016C354.922 181.956 344.255 171.368 331.096 171.368Z" fill="#00DF00"/>
<path d="M535.676 253.937H535.673C539.166 245.61 547.334 237.047 566.132 222.413C592.803 201.645 611.682 184.536 611.682 153.348C611.647 122.841 586.738 98.1183 556.001 98.0833L555.998 98.0815C525.261 98.1165 500.352 122.839 500.317 153.346H533.148C533.26 140.899 543.458 130.868 555.999 130.868C568.54 130.868 578.738 140.899 578.85 153.346C578.85 166.661 574.082 174.804 545.866 196.773C520.103 216.835 506.026 231.486 501.747 253.939H501.75C500.763 259.313 500.283 264.767 500.319 270.23V286.522H606.715V253.937H535.676Z" fill="#544AFF"/>
</svg>
